<?xml version="1.0" encoding="UTF-8"?>
<svg version="1.1" xmlns="http://www.w3.org/2000/svg" width="500" height="500">
<path d="M0 0 C5.70260129 4.04700737 9.25195007 9.49671526 10.81640625 16.2890625 C11.82265186 23.45856246 9.85092627 29.49886362 5.62890625 35.2890625 C5.03078125 35.9490625 4.43265625 36.6090625 3.81640625 37.2890625 C5.30140625 37.7840625 5.30140625 37.7840625 6.81640625 38.2890625 C7.50390625 40.3515625 7.50390625 40.3515625 7.81640625 42.2890625 C16.63326898 42.25081147 20.45799128 39.84819794 28.81640625 35.2890625 C28.81640625 46.1790625 28.81640625 57.0690625 28.81640625 68.2890625 C25.18640625 66.3090625 21.55640625 64.3290625 17.81640625 62.2890625 C11.87561602 61.32875921 11.87561602 61.32875921 6.81640625 61.2890625 C6.81640625 66.8990625 6.81640625 72.5090625 6.81640625 78.2890625 C1.20640625 78.2890625 -4.40359375 78.2890625 -10.18359375 78.2890625 C-10.18359375 68.3890625 -10.18359375 58.4890625 -10.18359375 48.2890625 C-13.15359375 48.2890625 -16.12359375 48.2890625 -19.18359375 48.2890625 C-19.42142578 49.19785156 -19.42142578 49.19785156 -19.6640625 50.125 C-21.46999962 56.61040955 -23.99599528 62.36743688 -27.18359375 68.2890625 C-30.23705079 64.73128073 -31.71762739 60.85848819 -33.37109375 56.5390625 C-33.64373047 55.84167969 -33.91636719 55.14429688 -34.19726562 54.42578125 C-34.864904 52.71568996 -35.52500927 51.00266096 -36.18359375 49.2890625 C-39.15359375 48.9590625 -42.12359375 48.6290625 -45.18359375 48.2890625 C-45.18359375 58.1890625 -45.18359375 68.0890625 -45.18359375 78.2890625 C-47.49359375 78.2890625 -49.80359375 78.2890625 -52.18359375 78.2890625 C-52.51359375 80.5990625 -52.84359375 82.9090625 -53.18359375 85.2890625 C-57.86249045 87.29553946 -62.58782109 88.3844729 -67.5390625 89.5078125 C-70.31070672 90.09764276 -70.31070672 90.09764276 -72.18359375 92.2890625 C-74.37650457 92.74568403 -76.58945264 93.1094745 -78.80859375 93.4140625 C-79.99710937 93.58164062 -81.185625 93.74921875 -82.41015625 93.921875 C-83.32539062 94.04304688 -84.240625 94.16421875 -85.18359375 94.2890625 C-85.18359375 91.6490625 -85.18359375 89.0090625 -85.18359375 86.2890625 C-83.10195357 85.92507628 -81.01818813 85.57322963 -78.93359375 85.2265625 C-77.7734375 85.02933594 -76.61328125 84.83210938 -75.41796875 84.62890625 C-72.40712917 84.31254992 -71.00956831 84.58256886 -68.18359375 85.2890625 C-65.92443261 85.05168687 -63.67306165 84.73227204 -61.43359375 84.3515625 C-60.263125 84.15691406 -59.09265625 83.96226562 -57.88671875 83.76171875 C-56.9946875 83.60574219 -56.10265625 83.44976562 -55.18359375 83.2890625 C-55.18359375 81.6390625 -55.18359375 79.9890625 -55.18359375 78.2890625 C-57.16359375 78.2890625 -59.14359375 78.2890625 -61.18359375 78.2890625 C-61.18359375 70.3690625 -61.18359375 62.4490625 -61.18359375 54.2890625 C-62.50359375 54.9490625 -63.82359375 55.6090625 -65.18359375 56.2890625 C-67.29296875 56.23046875 -67.29296875 56.23046875 -69.18359375 55.2890625 C-70.44921875 53.00390625 -70.44921875 53.00390625 -71.43359375 50.2265625 C-71.76875 49.30746094 -72.10390625 48.38835937 -72.44921875 47.44140625 C-72.6915625 46.73113281 -72.93390625 46.02085937 -73.18359375 45.2890625 C-64.61216518 46.2890625 -64.61216518 46.2890625 -61.18359375 47.2890625 C-61.18359375 46.6290625 -61.18359375 45.9690625 -61.18359375 45.2890625 C-62.23546875 45.19625 -62.23546875 45.19625 -63.30859375 45.1015625 C-68.13892149 43.73646988 -71.00735109 41.30698779 -73.48828125 37.05078125 C-76.08635908 31.29021559 -77.07801464 26.4018741 -75.18359375 20.2890625 C-72.68431737 14.70536169 -69.62772243 11.24782809 -64.18359375 8.2890625 C-58.38258146 6.35539174 -52.36964132 6.37852379 -46.80859375 9.0390625 C-43.79295538 10.74408137 -41.54916529 12.74826344 -39.18359375 15.2890625 C-38.19359375 15.6190625 -37.20359375 15.9490625 -36.18359375 16.2890625 C-36.10109375 15.4228125 -36.01859375 14.5565625 -35.93359375 13.6640625 C-34.67195893 7.9867058 -31.5248778 3.94716218 -26.9375 0.39453125 C-18.42082041 -4.97344275 -8.73156102 -4.90378579 0 0 Z M-22.18359375 11.2890625 C-24.61165163 14.65701375 -25.43784144 17.26819059 -25.18359375 21.3515625 C-24.40640806 25.62199336 -22.78492671 27.76046702 -19.18359375 30.2890625 C-15.02102466 31.66802057 -12.02106975 31.57348831 -7.87109375 30.1640625 C-4.83746201 28.04757524 -3.58232594 26.70818563 -2.18359375 23.2890625 C-1.63402 18.97098304 -1.88948225 16.84577356 -3.93359375 12.9765625 C-6.91979574 9.40971013 -8.47577502 8.47469497 -13.05859375 7.9765625 C-16.82588566 8.35329169 -19.03011405 9.1867427 -22.18359375 11.2890625 Z M-62.62109375 19.1640625 C-65.21832968 22.69630337 -65.70166825 24.88542927 -65.18359375 29.2890625 C-62.74565544 32.51574555 -61.02800974 34.0075905 -57.18359375 35.2890625 C-53.57781718 35.2890625 -52.03875364 34.43043242 -49.18359375 32.2890625 C-46.78508054 30.30513739 -46.78508054 30.30513739 -46.74609375 26.4765625 C-46.85028713 23.11172921 -47.21272729 22.24536219 -49.18359375 19.2890625 C-53.73481716 16.25491356 -58.00094538 15.61010222 -62.62109375 19.1640625 Z M-36.18359375 32.2890625 C-38.61073134 34.90757493 -38.61073134 34.90757493 -39.18359375 38.2890625 C-35.88359375 38.2890625 -32.58359375 38.2890625 -29.18359375 38.2890625 C-30.9719115 35.23143032 -30.9719115 35.23143032 -33.18359375 32.2890625 C-34.17359375 32.2890625 -35.16359375 32.2890625 -36.18359375 32.2890625 Z M-0.18359375 70.2890625 C-0.51359375 71.6090625 -0.84359375 72.9290625 -1.18359375 74.2890625 C-0.19359375 73.9590625 0.79640625 73.6290625 1.81640625 73.2890625 C1.48640625 72.2990625 1.15640625 71.3090625 0.81640625 70.2890625 C0.48640625 70.2890625 0.15640625 70.2890625 -0.18359375 70.2890625 Z " fill="#FDFDFD" transform="translate(160.18359375,202.7109375)"/>
<path d="M0 0 C0.33 0 0.66 0 1 0 C1 6.6 1 13.2 1 20 C-1.97 20 -4.94 20 -8 20 C-2.28571429 2.28571429 -2.28571429 2.28571429 0 0 Z " fill="#FAFCFC" transform="translate(143,261)"/>
<path d="M0 0 C2.09733845 2.09733845 2.68847755 3.40303355 3.7265625 6.1328125 C4.0359375 6.93847656 4.3453125 7.74414062 4.6640625 8.57421875 C4.98117188 9.41597656 5.29828125 10.25773437 5.625 11.125 C5.94984375 11.97449219 6.2746875 12.82398438 6.609375 13.69921875 C7.41102691 15.79766051 8.20613743 17.89859908 9 20 C6.03 20 3.06 20 0 20 C0 13.4 0 6.8 0 0 Z " fill="#FCFDFC" transform="translate(122,261)"/>
<path d="M0 0 C0.99 0 1.98 0 3 0 C3.33 1.32 3.66 2.64 4 4 C2.68 4.33 1.36 4.66 0 5 C-0.5625 3.0625 -0.5625 3.0625 -1 1 C-0.67 0.67 -0.34 0.34 0 0 Z " fill="#F4F6F7" transform="translate(150,217)"/>
<path d="M0 0 C0.99 0.33 1.98 0.66 3 1 C2.67 2.32 2.34 3.64 2 5 C0.68 4.67 -0.64 4.34 -2 4 C-1.34 2.68 -0.68 1.36 0 0 Z " fill="#F1FAFB" transform="translate(143,225)"/>
<path d="M0 0 C1.98 0.495 1.98 0.495 4 1 C3.67 2.32 3.34 3.64 3 5 C1.68 4.34 0.36 3.68 -1 3 C-0.67 2.01 -0.34 1.02 0 0 Z " fill="#EEF4F5" transform="translate(149,224)"/>
<path d="M0 0 C1.32 0 2.64 0 4 0 C4 1.32 4 2.64 4 4 C2.68 4 1.36 4 0 4 C0 2.68 0 1.36 0 0 Z " fill="#F2F9F5" transform="translate(139,219)"/>
<path d="M0 0 C1.98 0.495 1.98 0.495 4 1 C3.67 1.99 3.34 2.98 3 4 C1.68 3.67 0.36 3.34 -1 3 C-0.67 2.01 -0.34 1.02 0 0 Z " fill="#F6F9FA" transform="translate(144,214)"/>
<path d="M0 0 C0.99 0.33 1.98 0.66 3 1 C3 1.99 3 2.98 3 4 C1.68 4 0.36 4 -1 4 C-0.67 2.68 -0.34 1.36 0 0 Z " fill="#F2F4F5" transform="translate(107,224)"/>
<path d="M0 0 C1.32 0.33 2.64 0.66 4 1 C3.67 1.99 3.34 2.98 3 4 C2.01 3.67 1.02 3.34 0 3 C0 2.01 0 1.02 0 0 Z " fill="#F1F5F9" transform="translate(100,231)"/>
<path d="M0 0 C0.99 0 1.98 0 3 0 C3 1.32 3 2.64 3 4 C2.01 4 1.02 4 0 4 C0 2.68 0 1.36 0 0 Z " fill="#F3F7FC" transform="translate(106,230)"/>
<path d="M0 0 C1.32 0 2.64 0 4 0 C4 0.99 4 1.98 4 3 C2.68 2.67 1.36 2.34 0 2 C0 1.34 0 0.68 0 0 Z " fill="#EEF4F6" transform="translate(101,222)"/>
<path d="M0 0 C1.32 0.33 2.64 0.66 4 1 C3.67 1.66 3.34 2.32 3 3 C2.01 3 1.02 3 0 3 C0 2.01 0 1.02 0 0 Z " fill="#F7FAFB" transform="translate(98,226)"/>
<path d="" fill="#000000" transform="translate(0,0)"/>
<path d="" fill="#000000" transform="translate(0,0)"/>
<path d="" fill="#000000" transform="translate(0,0)"/>
<path d="" fill="#000000" transform="translate(0,0)"/>
<path d="" fill="#000000" transform="translate(0,0)"/>
<path d="" fill="#000000" transform="translate(0,0)"/>
<path d="" fill="#000000" transform="translate(0,0)"/>
<path d="" fill="#000000" transform="translate(0,0)"/>
<path d="" fill="#000000" transform="translate(0,0)"/>
<path d="" fill="#000000" transform="translate(0,0)"/>
<path d="" fill="#000000" transform="translate(0,0)"/>
<path d="" fill="#000000" transform="translate(0,0)"/>
<path d="" fill="#000000" transform="translate(0,0)"/>
<path d="" fill="#000000" transform="translate(0,0)"/>
<path d="" fill="#000000" transform="translate(0,0)"/>
<path d="" fill="#000000" transform="translate(0,0)"/>
<path d="" fill="#000000" transform="translate(0,0)"/>
<path d="" fill="#000000" transform="translate(0,0)"/>
<path d="" fill="#000000" transform="translate(0,0)"/>
<path d="" fill="#000000" transform="translate(0,0)"/>
<path d="" fill="#000000" transform="translate(0,0)"/>
<path d="" fill="#000000" transform="translate(0,0)"/>
<path d="" fill="#000000" transform="translate(0,0)"/>
<path d="" fill="#000000" transform="translate(0,0)"/>
<path d="" fill="#000000" transform="translate(0,0)"/>
<path d="" fill="#000000" transform="translate(0,0)"/>
<path d="" fill="#000000" transform="translate(0,0)"/>
<path d="" fill="#000000" transform="translate(0,0)"/>
<path d="" fill="#000000" transform="translate(0,0)"/>
<path d="" fill="#000000" transform="translate(0,0)"/>
<path d="" fill="#000000" transform="translate(0,0)"/>
<path d="" fill="#000000" transform="translate(0,0)"/>
<path d="" fill="#000000" transform="translate(0,0)"/>
<path d="" fill="#000000" transform="translate(0,0)"/>
<path d="" fill="#000000" transform="translate(0,0)"/>
<path d="" fill="#000000" transform="translate(0,0)"/>
<path d="" fill="#000000" transform="translate(0,0)"/>
<path d="" fill="#000000" transform="translate(0,0)"/>
<path d="" fill="#000000" transform="translate(0,0)"/>
<path d="" fill="#000000" transform="translate(0,0)"/>
<path d="" fill="#000000" transform="translate(0,0)"/>
<path d="" fill="#000000" transform="translate(0,0)"/>
<path d="" fill="#000000" transform="translate(0,0)"/>
<path d="" fill="#000000" transform="translate(0,0)"/>
<path d="" fill="#000000" transform="translate(0,0)"/>
<path d="" fill="#000000" transform="translate(0,0)"/>
<path d="" fill="#000000" transform="translate(0,0)"/>
<path d="" fill="#000000" transform="translate(0,0)"/>
<path d="" fill="#000000" transform="translate(0,0)"/>
<path d="" fill="#000000" transform="translate(0,0)"/>
<path d="" fill="#000000" transform="translate(0,0)"/>
<path d="" fill="#000000" transform="translate(0,0)"/>
<path d="" fill="#000000" transform="translate(0,0)"/>
<path d="" fill="#000000" transform="translate(0,0)"/>
<path d="" fill="#000000" transform="translate(0,0)"/>
<path d="" fill="#000000" transform="translate(0,0)"/>
<path d="" fill="#000000" transform="translate(0,0)"/>
<path d="" fill="#000000" transform="translate(0,0)"/>
<path d="" fill="#000000" transform="translate(0,0)"/>
<path d="" fill="#000000" transform="translate(0,0)"/>
<path d="" fill="#000000" transform="translate(0,0)"/>
<path d="" fill="#000000" transform="translate(0,0)"/>
<path d="" fill="#000000" transform="translate(0,0)"/>
<path d="" fill="#000000" transform="translate(0,0)"/>
<path d="" fill="#000000" transform="translate(0,0)"/>
<path d="" fill="#000000" transform="translate(0,0)"/>
<path d="" fill="#000000" transform="translate(0,0)"/>
<path d="" fill="#000000" transform="translate(0,0)"/>
<path d="" fill="#000000" transform="translate(0,0)"/>
<path d="" fill="#000000" transform="translate(0,0)"/>
<path d="" fill="#000000" transform="translate(0,0)"/>
<path d="" fill="#000000" transform="translate(0,0)"/>
<path d="" fill="#000000" transform="translate(0,0)"/>
<path d="" fill="#000000" transform="translate(0,0)"/>
<path d="" fill="#000000" transform="translate(0,0)"/>
<path d="" fill="#000000" transform="translate(0,0)"/>
<path d="" fill="#000000" transform="translate(0,0)"/>
<path d="" fill="#000000" transform="translate(0,0)"/>
<path d="" fill="#000000" transform="translate(0,0)"/>
<path d="" fill="#000000" transform="translate(0,0)"/>
<path d="" fill="#000000" transform="translate(0,0)"/>
<path d="" fill="#000000" transform="translate(0,0)"/>
</svg>
